<svg id="Livello_1" data-name="Livello 1" xmlns="http://www.w3.org/2000/svg" viewBox="0 0 400.25 351"><defs><style>.cls-1{fill:#2dc7e0;}.cls-2{fill:#29aacc;}.cls-3{fill:#33d1e2;}.cls-4{fill:#2cb8dd;}.cls-5{fill:#29acd9;}.cls-6{fill:#e6e7e8;}</style></defs><title>logo-original</title><path class="cls-1" d="M222.53,130l88.95,51.35L400.42,130V27.25Z" transform="translate(-0.17 -27.25)"/><path class="cls-2" d="M.17,335.36,267,181.31.17,27.25Z" transform="translate(-0.17 -27.25)"/><path class="cls-3" d="M400.42,232.66l-88.94-51.35L400.42,130Z" transform="translate(-0.17 -27.25)"/><path class="cls-4" d="M222.53,130,133.59,78.6l88.94-51.35H400.42Z" transform="translate(-0.17 -27.25)"/><path class="cls-5" d="M222.53,27.25,133.59,78.6,44.64,27.25Z" transform="translate(-0.17 -27.25)"/><path class="cls-4" d="M222.53,232.66,133.59,284l88.94,51.35H400.42Z" transform="translate(-0.17 -27.25)"/><path class="cls-1" d="M400.42,232.66l-88.94-51.35-88.95,51.35,177.89,102.7Z" transform="translate(-0.17 -27.25)"/><path class="cls-5" d="M222.53,335.36,133.59,284,44.64,335.36Z" transform="translate(-0.17 -27.25)"/><ellipse class="cls-6" cx="200.13" cy="342.91" rx="200.13" ry="8.09"/></svg>